<svg version="1.1" id="Layer_1" xmlns="http://www.w3.org/2000/svg" xmlns:xlink="http://www.w3.org/1999/xlink" x="0px" y="0px"
	 width="100%" viewBox="0 0 381 381"  xml:space="preserve">
<path opacity="1.000000" stroke="none"
	d="
M382.000000,138.000000
	C382.000000,219.666672 382.000000,300.833344 382.000000,382.000000
	C255.000000,382.000000 128.000000,382.000000 1.000000,382.000000
	C1.000000,255.000000 1.000000,128.000000 1.000000,1.000000
	C128.000000,1.000000 255.000000,1.000000 382.000000,1.000000
	C382.000000,46.500000 382.000000,92.000000 382.000000,138.000000
M265.020050,85.941750
	C265.067383,95.292191 265.114685,104.642632 265.010742,114.920395
	C265.009094,127.263969 265.011108,139.607544 265.004639,151.951111
	C264.998993,162.782501 265.003540,173.613998 264.935150,184.445023
	C264.929688,185.311066 264.391602,186.173752 263.197449,187.010941
	C260.250122,187.311646 257.274445,187.447617 254.361542,187.948593
	C248.904007,188.887192 247.025375,191.194717 246.998932,196.575546
	C246.983429,199.732483 246.915466,202.892960 247.044556,206.044724
	C247.089172,207.133698 247.373779,208.894653 248.033478,209.164780
	C251.986740,210.783447 256.010986,212.490448 260.174011,213.165909
	C261.331970,213.353806 263.001556,210.106613 264.515503,208.510361
	C265.191711,207.797379 266.197968,207.383163 266.824127,206.639435
	C270.581390,202.176758 274.271606,197.657654 278.647705,192.663773
	C278.780884,190.704147 278.914062,188.744522 279.039398,186.413528
	C279.039398,186.413528 278.988678,186.045563 279.801117,185.688370
	C279.867218,176.587418 279.959290,167.486435 279.954712,158.385513
	C279.954285,157.575485 279.325348,156.765793 279.038452,155.585297
	C279.038452,155.585297 279.046021,155.211380 279.035095,154.231094
	C279.348724,137.272171 279.820282,120.314102 279.910126,103.353996
	C279.955719,94.738388 279.195740,86.121559 279.018158,77.500786
	C278.863037,69.969742 279.013611,62.432400 278.923798,54.198421
	C275.560822,45.328136 269.595276,39.503963 259.567230,37.213268
	C232.005127,37.124817 204.443039,37.028851 176.880859,36.993095
	C176.220703,36.992237 175.559677,37.664089 174.238831,38.322506
	C169.267181,41.567085 169.615677,46.961678 175.330353,50.813896
	C192.547882,50.827610 209.765396,50.841328 227.910950,51.011112
	C238.269348,50.996552 248.627747,50.981991 259.376984,51.519955
	C261.272522,53.022430 263.168060,54.524906 265.104462,56.960243
	C265.122406,66.311989 265.140350,75.663734 265.020050,85.941750
M123.842735,89.630997
	C123.968040,81.402748 124.093338,73.174507 124.794403,65.371178
	C132.956818,65.246521 141.118866,65.085922 149.281738,65.007889
	C156.599289,64.937935 157.881775,64.008293 160.847595,56.523911
	C160.902390,47.086159 160.983582,37.648357 160.965332,28.210743
	C160.963745,27.393744 160.305405,26.578012 159.904907,25.079472
	C156.147766,19.841896 148.030624,17.667429 144.198853,21.435183
	C132.971756,32.474747 122.040169,43.814842 110.336845,55.559662
	C110.219887,56.377361 110.000778,57.195038 110.000587,58.012764
	C109.989319,106.482513 109.989006,154.952271 110.042854,203.421967
	C110.044174,204.612061 110.665649,205.801483 110.999863,207.788879
	C111.963753,215.189178 115.755417,220.503891 122.593262,223.615646
	C130.514618,227.220490 138.903763,225.740631 148.058609,225.985016
	C165.105728,225.991257 182.152939,226.025742 199.199768,225.958649
	C200.842117,225.952194 202.481979,225.315125 204.698410,224.767288
	C206.808090,224.497223 209.055939,224.584900 210.982574,223.840851
	C212.452438,223.273209 214.067215,221.852432 214.583344,220.434692
	C214.991455,219.313614 214.164749,217.347229 213.276230,216.250641
	C212.181122,214.899078 210.453354,214.060135 208.666534,212.181030
	C182.813232,212.135056 156.959946,212.089066 130.345001,211.958908
	C126.891342,211.813858 124.697693,209.860794 124.133797,206.662445
	C123.455505,202.815216 123.360069,198.865219 123.832947,194.643524
	C123.887794,162.083237 123.948227,129.522964 123.956429,96.962669
	C123.956589,96.325111 123.343102,95.687401 123.021072,94.197624
	C123.020927,92.777344 123.020775,91.357071 123.842735,89.630997
M239.033508,89.677315
	C238.684525,88.759750 238.335526,87.842186 238.000870,86.202454
	C235.015717,83.094589 232.566193,78.969353 228.947769,77.064255
	C216.713623,70.622932 203.531967,68.867241 189.642685,69.797226
	C179.594147,70.470055 169.791092,71.469193 160.794510,76.021904
	C156.342590,78.274803 152.074646,81.355186 150.276825,87.417618
	C150.184753,87.903358 150.012375,88.389046 150.012070,88.874847
	C149.992981,119.089287 149.979599,149.303757 150.024673,179.518127
	C150.025940,180.365677 150.665970,181.212265 150.983994,182.795685
	C151.204224,183.571701 151.243942,184.469131 151.671921,185.105438
	C157.677963,194.035156 167.460129,196.827866 176.900726,198.716736
	C189.554047,201.248383 202.715637,201.296555 215.235489,197.749649
	C224.811356,195.036789 235.284607,192.482330 239.082275,180.091965
	C239.075699,160.307251 239.069122,140.522537 239.046539,120.464874
	C239.046539,120.464874 238.957321,120.206421 239.742233,119.763603
	C239.828033,111.077133 239.948532,102.390671 239.952255,93.704163
	C239.952682,92.708336 239.300720,91.712234 239.045029,90.638390
	C239.045029,90.638390 239.048462,90.516548 239.033508,89.677315
M217.903229,278.995544
	C223.058426,276.593811 228.613770,274.789398 233.282623,271.661682
	C242.062820,265.779663 252.081284,261.703125 258.933838,252.908066
	C266.166595,243.625031 262.636902,233.375153 257.157837,227.596512
	C250.703323,220.789124 238.702820,219.168152 231.236511,224.213440
	C226.585068,227.356613 222.281219,231.069107 217.436417,233.857147
	C211.506912,237.269363 205.174820,239.981964 198.076035,242.995346
	C187.389374,242.999908 176.702713,243.004486 165.277283,242.914627
	C161.749542,242.396698 158.162933,242.125946 154.707870,241.302902
	C149.522110,240.067612 144.411224,238.503082 139.299652,236.974411
	C130.176392,234.246017 120.882339,234.923096 111.520927,234.703506
	C100.593552,234.447205 90.991447,237.807053 81.426476,241.872894
	C69.349091,247.006699 59.269707,255.089340 50.007996,264.300812
	C48.817318,265.485016 45.956318,266.544952 44.777317,265.927673
	C38.226063,262.497803 34.690434,262.726227 29.570087,267.832123
	C24.734257,272.654297 20.116846,277.722382 15.008883,282.235870
	C11.310288,285.503998 12.132855,287.885132 15.161405,290.777863
	C20.569908,295.943787 25.930820,301.164154 31.178907,306.492462
	C44.434433,319.950653 57.653595,333.445251 70.806015,347.004120
	C75.070107,351.399963 79.216522,355.927155 83.161110,360.609680
	C85.723083,363.650909 87.892441,363.690460 90.598480,360.940125
	C96.619896,354.820129 102.716553,348.773529 108.827103,342.742157
	C112.048233,339.562744 112.016899,336.019073 110.094193,332.302155
	C109.280220,330.728729 108.136292,329.325928 106.533195,326.938324
	C109.589317,325.453674 112.174454,323.852173 114.980484,322.905334
	C121.150681,320.823273 127.095337,322.002869 133.286362,323.839417
	C142.144592,326.467163 151.361832,327.856476 160.350784,330.078033
	C176.204819,333.996216 191.986954,338.204346 207.829468,342.170288
	C216.288528,344.287903 224.044418,341.184448 231.046326,337.281464
	C235.594849,334.746002 239.072845,330.148560 242.742920,326.207184
	C251.320557,316.995453 259.941223,307.808624 268.150269,298.272339
	C281.507599,282.755280 294.404388,266.841431 307.777008,251.337845
	C316.469299,241.260391 325.761139,231.702637 334.599670,221.748093
	C342.664856,212.664566 350.840668,203.638870 358.275818,194.051132
	C362.899261,188.089157 366.722565,181.394806 364.531799,172.977661
	C360.084229,155.889832 337.464539,153.950867 327.516418,163.229965
	C313.119568,176.658630 299.473450,190.895493 285.598724,204.878586
	C281.277344,209.233734 277.514709,214.168945 273.006470,218.304703
	C269.641968,221.391205 268.856659,223.867325 271.341858,227.982956
	C279.300385,241.162643 273.142700,256.930481 265.227417,263.996613
	C259.348907,269.244476 252.111374,272.934784 245.847641,277.793884
	C233.989090,286.993103 220.463120,290.146759 205.808548,289.991760
	C194.980804,289.877197 184.149521,290.066254 173.322586,289.917877
	C169.201294,289.861389 165.576874,290.081299 162.508255,293.568390
	C161.472748,294.745087 158.329605,295.045715 156.682861,294.395813
	C155.368942,293.877319 154.280624,291.365570 154.110031,289.638092
	C153.597961,284.452576 158.662018,280.172638 165.845459,279.538513
	C167.307266,279.351440 168.768875,279.003815 170.230911,279.002014
	C185.867966,278.982635 201.505096,279.018005 217.903229,278.995544
z"/>
<path fill="currentColor" opacity="1.000000" stroke="none"
	d="
M199.016785,242.997070
	C205.174820,239.981964 211.506912,237.269363 217.436417,233.857147
	C222.281219,231.069107 226.585068,227.356613 231.236511,224.213440
	C238.702820,219.168152 250.703323,220.789124 257.157837,227.596512
	C262.636902,233.375153 266.166595,243.625031 258.933838,252.908066
	C252.081284,261.703125 242.062820,265.779663 233.282623,271.661682
	C228.613770,274.789398 223.058426,276.593811 217.294708,278.634705
	C200.463318,278.201385 184.240372,278.096954 168.017792,278.136566
	C167.051971,278.138916 166.088974,279.295959 165.124664,279.915649
	C158.662018,280.172638 153.597961,284.452576 154.110031,289.638092
	C154.280624,291.365570 155.368942,293.877319 156.682861,294.395813
	C158.329605,295.045715 161.472748,294.745087 162.508255,293.568390
	C165.576874,290.081299 169.201294,289.861389 173.322586,289.917877
	C184.149521,290.066254 194.980804,289.877197 205.808548,289.991760
	C220.463120,290.146759 233.989090,286.993103 245.847641,277.793884
	C252.111374,272.934784 259.348907,269.244476 265.227417,263.996613
	C273.142700,256.930481 279.300385,241.162643 271.341858,227.982956
	C268.856659,223.867325 269.641968,221.391205 273.006470,218.304703
	C277.514709,214.168945 281.277344,209.233734 285.598724,204.878586
	C299.473450,190.895493 313.119568,176.658630 327.516418,163.229965
	C337.464539,153.950867 360.084229,155.889832 364.531799,172.977661
	C366.722565,181.394806 362.899261,188.089157 358.275818,194.051132
	C350.840668,203.638870 342.664856,212.664566 334.599670,221.748093
	C325.761139,231.702637 316.469299,241.260391 307.777008,251.337845
	C294.404388,266.841431 281.507599,282.755280 268.150269,298.272339
	C259.941223,307.808624 251.320557,316.995453 242.742920,326.207184
	C239.072845,330.148560 235.594849,334.746002 231.046326,337.281464
	C224.044418,341.184448 216.288528,344.287903 207.829468,342.170288
	C191.986954,338.204346 176.204819,333.996216 160.350784,330.078033
	C151.361832,327.856476 142.144592,326.467163 133.286362,323.839417
	C127.095337,322.002869 121.150681,320.823273 114.980484,322.905334
	C112.174454,323.852173 109.589317,325.453674 106.533195,326.938324
	C108.136292,329.325928 109.280220,330.728729 110.094193,332.302155
	C112.016899,336.019073 112.048233,339.562744 108.827103,342.742157
	C102.716553,348.773529 96.619896,354.820129 90.598480,360.940125
	C87.892441,363.690460 85.723083,363.650909 83.161110,360.609680
	C79.216522,355.927155 75.070107,351.399963 70.806015,347.004120
	C57.653595,333.445251 44.434433,319.950653 31.178907,306.492462
	C25.930820,301.164154 20.569908,295.943787 15.161405,290.777863
	C12.132855,287.885132 11.310288,285.503998 15.008883,282.235870
	C20.116846,277.722382 24.734257,272.654297 29.570087,267.832123
	C34.690434,262.726227 38.226063,262.497803 44.777317,265.927673
	C45.956318,266.544952 48.817318,265.485016 50.007996,264.300812
	C59.269707,255.089340 69.349091,247.006699 81.426476,241.872894
	C90.991447,237.807053 100.593552,234.447205 111.520927,234.703506
	C120.882339,234.923096 130.176392,234.246017 139.299652,236.974411
	C144.411224,238.503082 149.522110,240.067612 154.707870,241.302902
	C158.162933,242.125946 161.749542,242.396698 165.941040,243.255157
	C176.022339,243.729187 185.439651,243.905670 194.857590,243.949066
	C196.242508,243.955444 197.630310,243.330124 199.016785,242.997070
M71.199158,316.274811
	C76.465775,322.013580 81.669495,327.811920 87.023865,333.467621
	C89.982277,336.592499 94.593460,337.115479 96.710228,334.582825
	C99.507156,331.236359 97.629166,328.255676 95.226624,325.799011
	C87.771530,318.175934 80.149925,310.716003 72.630280,303.155609
	C69.700569,300.210022 66.877403,297.158661 63.993385,294.167358
	C58.711052,288.688507 53.451935,283.186432 48.095806,277.780579
	C47.320450,276.998016 45.995510,276.160492 45.039536,276.278351
	C42.904297,276.541626 39.756821,276.803101 39.024151,278.152527
	C38.112198,279.832153 38.328426,283.473206 39.593109,284.772644
	C49.806953,295.267151 60.381725,305.410339 71.199158,316.274811
M230.791168,244.701126
	C231.789871,252.571304 236.635651,254.725571 242.818634,250.016068
	C243.980515,249.131073 244.860458,247.689148 246.139496,247.180099
	C249.856903,245.700592 251.022034,243.382462 249.143753,239.813370
	C246.877838,235.507706 242.448578,233.382004 239.118500,235.698746
	C235.891312,237.943878 233.407394,241.257385 230.791168,244.701126
M56.824986,315.430908
	C57.079720,313.366089 57.638504,311.271332 57.439842,309.251099
	C57.360153,308.440735 55.364094,307.010162 54.678265,307.229767
	C53.053112,307.750122 50.895012,308.815613 50.429855,310.168732
	C49.894070,311.727234 50.449078,314.222961 51.494228,315.555969
	C52.141430,316.381409 54.582111,315.800629 56.824986,315.430908
z"/>
<path fill="#060913" opacity="1.000000" stroke="none"
	d="
M238.981354,180.963257
	C235.284607,192.482330 224.811356,195.036789 215.235489,197.749649
	C202.715637,201.296555 189.554047,201.248383 176.900726,198.716736
	C167.460129,196.827866 157.677963,194.035156 151.671921,185.105438
	C151.243942,184.469131 151.204224,183.571701 151.024536,181.953979
	C151.046341,149.726288 151.027603,118.340324 151.008881,86.954361
	C152.074646,81.355186 156.342590,78.274803 160.794510,76.021904
	C169.791092,71.469193 179.594147,70.470055 189.642685,69.797226
	C203.531967,68.867241 216.713623,70.622932 228.947769,77.064255
	C232.566193,78.969353 235.015717,83.094589 237.971527,86.964806
	C238.310944,88.656960 238.679703,89.586754 239.048462,90.516548
	C239.048462,90.516548 239.045029,90.638390 238.853943,91.145782
	C238.761017,101.170921 238.859161,110.688667 238.957321,120.206421
	C238.957321,120.206421 239.046539,120.464874 238.704254,120.882034
	C238.225983,140.698242 238.082413,160.097244 237.997391,179.496490
	C237.995255,179.983963 238.638885,180.474274 238.981354,180.963257
M222.796417,95.492332
	C228.202972,91.783325 228.132385,90.042625 222.414810,86.524429
	C216.700607,83.008293 210.232330,82.826454 203.827637,81.776649
	C191.216995,79.709610 179.260056,81.820801 167.444458,85.657372
	C165.383759,86.326492 162.635071,88.372002 162.382294,90.100365
	C162.144348,91.727463 164.498276,94.128494 166.240540,95.533554
	C167.820007,96.807320 170.050842,97.562469 172.101852,97.906944
	C177.711029,98.849045 183.421356,99.212517 189.010910,100.242958
	C200.563950,102.372765 211.255814,98.534904 222.796417,95.492332
M183.034286,143.515793
	C190.219513,144.490799 197.305603,145.769531 204.567581,143.247528
	C210.818100,141.076767 217.519531,140.171967 223.706604,137.863297
	C227.399155,136.485428 230.329956,133.407181 228.365417,128.206741
	C205.871216,136.429367 183.517563,138.218445 161.255676,128.043671
	C160.679245,136.780441 161.056396,137.530838 169.253067,140.082123
	C173.483490,141.398880 177.876434,142.193497 183.034286,143.515793
M195.376648,179.015396
	C184.048767,177.168015 172.720901,175.320618 161.386292,173.472137
	C160.501663,179.394821 160.624786,179.761932 166.181229,182.524353
	C168.101654,183.479126 170.171768,184.147980 172.204254,184.859619
	C182.963120,188.626556 194.061951,188.958710 205.042419,186.775467
	C212.062073,185.379745 218.843628,182.624344 225.596146,180.113388
	C229.149506,178.792053 229.767914,175.807007 228.667984,173.002380
	C217.644974,175.049683 206.972855,177.031799 195.376648,179.015396
M173.067535,119.449974
	C180.896790,120.627090 188.773483,122.976631 196.542358,122.662163
	C204.842896,122.326180 213.093307,119.683739 221.266037,117.648300
	C226.399033,116.369911 229.361069,111.191635 228.242783,106.318214
	C206.190521,114.878326 184.032135,116.207588 161.809967,106.995987
	C160.179443,113.043198 161.510941,115.890991 167.008179,117.834251
	C168.714722,118.437508 170.535263,118.718254 173.067535,119.449974
M212.466766,155.004364
	C194.915237,158.509155 177.783218,157.672852 161.309021,150.023422
	C159.880173,155.621582 161.985901,158.867111 167.294327,161.218781
	C177.972229,165.949142 189.139359,166.972549 200.352646,165.495422
	C208.417038,164.433090 216.328308,161.793289 224.123260,159.283646
	C227.781738,158.105789 230.139832,155.142960 228.465881,150.355087
	C223.387161,151.907730 218.349365,153.447876 212.466766,155.004364
z"/>
<path fill="#050A14" opacity="1.000000" stroke="none"
	d="
M147.140213,225.936340
	C138.903763,225.740631 130.514618,227.220490 122.593262,223.615646
	C115.755417,220.503891 111.963753,215.189178 111.018265,206.922440
	C111.022057,155.716400 111.007439,105.376808 110.992821,55.037209
	C122.040169,43.814842 132.971756,32.474747 144.198853,21.435183
	C148.030624,17.667429 156.147766,19.841896 159.907944,25.904823
	C159.958282,36.770176 160.005585,46.810177 160.052887,56.850178
	C157.881775,64.008293 156.599289,64.937935 149.281738,65.007889
	C141.118866,65.085922 132.956818,65.246521 124.052544,65.235123
	C123.213997,73.378311 123.117310,81.657555 123.020630,89.936790
	C123.020775,91.357071 123.020927,92.777344 122.987854,95.088326
	C122.973854,128.972595 122.993065,161.966156 123.012283,194.959717
	C123.360069,198.865219 123.455505,202.815216 124.133797,206.662445
	C124.697693,209.860794 126.891342,211.813858 130.959076,212.351166
	C157.381775,212.828842 183.190384,212.914246 208.999008,212.999664
	C210.453354,214.060135 212.181122,214.899078 213.276230,216.250641
	C214.164749,217.347229 214.991455,219.313614 214.583344,220.434692
	C214.067215,221.852432 212.452438,223.273209 210.982574,223.840851
	C209.055939,224.584900 206.808090,224.497223 203.933624,224.876373
	C185.980331,224.999161 168.791733,224.990540 151.603500,225.065857
	C150.114502,225.072388 148.627914,225.633072 147.140213,225.936340
M147.919434,37.529102
	C147.154282,37.335682 145.956192,36.729431 145.688416,37.010262
	C141.066269,41.857704 136.558701,46.814396 132.026062,51.747169
	C132.247208,52.233521 132.468353,52.719868 132.689499,53.206219
	C137.630966,52.734814 142.572418,52.263409 147.988342,51.746742
	C147.988342,46.924805 147.988342,42.628574 147.919434,37.529102
z"/>
<path fill="#030712" opacity="1.000000" stroke="none"
	d="
M277.984314,193.157471
	C274.271606,197.657654 270.581390,202.176758 266.824127,206.639435
	C266.197968,207.383163 265.191711,207.797379 264.515503,208.510361
	C263.001556,210.106613 261.331970,213.353806 260.174011,213.165909
	C256.010986,212.490448 251.986740,210.783447 248.033478,209.164780
	C247.373779,208.894653 247.089172,207.133698 247.044556,206.044724
	C246.915466,202.892960 246.983429,199.732483 246.998932,196.575546
	C247.025375,191.194717 248.904007,188.887192 254.361542,187.948593
	C257.274445,187.447617 260.250122,187.311646 263.757446,187.428314
	C264.886475,187.002975 265.951202,186.160828 265.952179,185.317459
	C265.979004,161.542618 265.898438,137.767654 265.906464,113.529266
	C265.930756,103.716156 265.884033,94.366493 265.912689,84.552414
	C265.991241,78.614067 266.110626,73.136879 265.958191,67.667282
	C265.849884,63.782021 265.374908,59.906979 265.063599,56.027382
	C263.168060,54.524906 261.272522,53.022430 258.882843,50.948517
	C247.919830,50.300480 237.450974,50.223885 226.518143,50.086029
	C209.033798,50.015476 192.013412,50.006184 174.993027,49.996887
	C169.615677,46.961678 169.267181,41.567085 175.044830,38.196754
	C203.883743,38.043041 231.916687,38.015079 259.949615,37.987122
	C269.595276,39.503963 275.560822,45.328136 278.624268,54.804344
	C278.224640,55.893562 278.037384,56.376778 278.036926,56.860172
	C278.006927,88.260185 277.978455,119.660233 278.021332,151.060181
	C278.023224,152.444382 278.689301,153.827667 279.046021,155.211380
	C279.046021,155.211380 279.038452,155.585297 278.957886,156.239258
	C278.914459,166.610657 278.951569,176.328110 278.988678,186.045563
	C278.988678,186.045563 279.039398,186.413528 278.734680,186.880554
	C278.281403,189.284195 278.132874,191.220840 277.984314,193.157471
z"/>
<path fill="#42464C" opacity="1.000000" stroke="none"
	d="
M110.664833,55.298435
	C111.007439,105.376808 111.022057,155.716400 111.017273,206.523605
	C110.665649,205.801483 110.044174,204.612061 110.042854,203.421967
	C109.989006,154.952271 109.989319,106.482513 110.000587,58.012764
	C110.000778,57.195038 110.219887,56.377361 110.664833,55.298435
z"/>
<path fill="#30333A" opacity="1.000000" stroke="none"
	d="
M279.040558,154.721237
	C278.689301,153.827667 278.023224,152.444382 278.021332,151.060181
	C277.978455,119.660233 278.006927,88.260185 278.036926,56.860172
	C278.037384,56.376778 278.224640,55.893562 278.676910,55.154053
	C279.013611,62.432400 278.863037,69.969742 279.018158,77.500786
	C279.195740,86.121559 279.955719,94.738388 279.910126,103.353996
	C279.820282,120.314102 279.348724,137.272171 279.040558,154.721237
z"/>
<path fill="#FFFFFF" opacity="1.000000" stroke="none"
	d="
M123.422615,194.801620
	C122.993065,161.966156 122.973854,128.972595 122.985275,95.514389
	C123.343102,95.687401 123.956589,96.325111 123.956429,96.962669
	C123.948227,129.522964 123.887794,162.083237 123.422615,194.801620
z"/>
<path fill="#404246" opacity="1.000000" stroke="none"
	d="
M150.642853,87.185989
	C151.027603,118.340324 151.046341,149.726288 151.036621,181.585785
	C150.665970,181.212265 150.025940,180.365677 150.024673,179.518127
	C149.979599,149.303757 149.992981,119.089287 150.012070,88.874847
	C150.012375,88.389046 150.184753,87.903358 150.642853,87.185989
z"/>
<path fill="#6D7076" opacity="1.000000" stroke="none"
	d="
M239.031815,180.527618
	C238.638885,180.474274 237.995255,179.983963 237.997391,179.496490
	C238.082413,160.097244 238.225983,140.698242 238.712250,121.018509
	C239.069122,140.522537 239.075699,160.307251 239.031815,180.527618
z"/>
<path fill="#C0C1C6" opacity="1.000000" stroke="none"
	d="
M265.835449,113.992714
	C265.898438,137.767654 265.979004,161.542618 265.952179,185.317459
	C265.951202,186.160828 264.886475,187.002975 264.209259,187.441833
	C264.391602,186.173752 264.929688,185.311066 264.935150,184.445023
	C265.003540,173.613998 264.998993,162.782501 265.004639,151.951111
	C265.011108,139.607544 265.009094,127.263969 265.254761,114.457573
	C265.498749,113.994751 265.835480,113.992714 265.835449,113.992714
z"/>
<path fill="#71727A" opacity="1.000000" stroke="none"
	d="
M259.758423,37.600197
	C231.916687,38.015079 203.883743,38.043041 175.374939,38.046593
	C175.559677,37.664089 176.220703,36.992237 176.880859,36.993095
	C204.443039,37.028851 232.005127,37.124817 259.758423,37.600197
z"/>
<path fill="#FEFEFE" opacity="1.000000" stroke="none"
	d="
M208.832764,212.590347
	C183.190384,212.914246 157.381775,212.828842 131.339905,212.393250
	C156.959946,212.089066 182.813232,212.135056 208.832764,212.590347
z"/>
<path fill="#B0B1B7" opacity="1.000000" stroke="none"
	d="
M147.599411,225.960678
	C148.627914,225.633072 150.114502,225.072388 151.603500,225.065857
	C168.791733,224.990540 185.980331,224.999161 203.645905,224.978134
	C202.481979,225.315125 200.842117,225.952194 199.199768,225.958649
	C182.152939,226.025742 165.105728,225.991257 147.599411,225.960678
z"/>
<path fill="#3C3F44" opacity="1.000000" stroke="none"
	d="
M165.485062,279.727081
	C166.088974,279.295959 167.051971,278.138916 168.017792,278.136566
	C184.240372,278.096954 200.463318,278.201385 216.914185,278.656097
	C201.505096,279.018005 185.867966,278.982635 170.230911,279.002014
	C168.768875,279.003815 167.307266,279.351440 165.485062,279.727081
z"/>
<path fill="#C5CACC" opacity="1.000000" stroke="none"
	d="
M175.161682,50.405392
	C192.013412,50.006184 209.033798,50.015476 226.524536,50.262962
	C226.994904,50.501152 226.982925,50.855045 226.982925,50.855045
	C209.765396,50.841328 192.547882,50.827610 175.161682,50.405392
z"/>
<path fill="#222629" opacity="1.000000" stroke="none"
	d="
M198.546417,242.996216
	C197.630310,243.330124 196.242508,243.955444 194.857590,243.949066
	C185.439651,243.905670 176.022339,243.729187 166.310425,243.302368
	C176.702713,243.004486 187.389374,242.999908 198.546417,242.996216
z"/>
<path fill="#B2B4B8" opacity="1.000000" stroke="none"
	d="
M227.446930,50.933079
	C226.982925,50.855045 226.994904,50.501152 226.988495,50.324219
	C237.450974,50.223885 247.919830,50.300480 258.687439,50.672253
	C248.627747,50.981991 238.269348,50.996552 227.446930,50.933079
z"/>
<path fill="#DBDCDF" opacity="1.000000" stroke="none"
	d="
M160.450241,56.687042
	C160.005585,46.810177 159.958282,36.770176 159.931549,26.245935
	C160.305405,26.578012 160.963745,27.393744 160.965332,28.210743
	C160.983582,37.648357 160.902390,47.086159 160.450241,56.687042
z"/>
<path fill="#FFFFFF" opacity="1.000000" stroke="none"
	d="
M279.394897,185.866974
	C278.951569,176.328110 278.914459,166.610657 278.932831,156.424561
	C279.325348,156.765793 279.954285,157.575485 279.954712,158.385513
	C279.959290,167.486435 279.867218,176.587418 279.394897,185.866974
z"/>
<path fill="#FFFFFF" opacity="1.000000" stroke="none"
	d="
M239.349777,119.985016
	C238.859161,110.688667 238.761017,101.170921 238.807068,91.184708
	C239.300720,91.712234 239.952682,92.708336 239.952255,93.704163
	C239.948532,102.390671 239.828033,111.077133 239.349777,119.985016
z"/>
<path fill="#C8C9CE" opacity="1.000000" stroke="none"
	d="
M265.906494,113.529266
	C265.835480,113.992714 265.498749,113.994751 265.330383,113.993912
	C265.114685,104.642632 265.067383,95.292191 265.258911,85.476311
	C265.497803,85.010872 265.837311,85.016823 265.837311,85.016823
	C265.884033,94.366493 265.930756,103.716156 265.906494,113.529266
z"/>
<path fill="#B8B9BE" opacity="1.000000" stroke="none"
	d="
M265.912689,84.552414
	C265.837311,85.016823 265.497803,85.010872 265.328064,85.013176
	C265.140350,75.663734 265.122406,66.311989 265.084045,56.493813
	C265.374908,59.906979 265.849884,63.782021 265.958191,67.667282
	C266.110626,73.136879 265.991241,78.614067 265.912689,84.552414
z"/>
<path fill="#FEFEFE" opacity="1.000000" stroke="none"
	d="
M123.431686,89.783890
	C123.117310,81.657555 123.213997,73.378311 123.764664,65.022667
	C124.093338,73.174507 123.968040,81.402748 123.431686,89.783890
z"/>
<path fill="#30333A" opacity="1.000000" stroke="none"
	d="
M278.316040,192.910614
	C278.132874,191.220840 278.281403,189.284195 278.738586,187.066223
	C278.914062,188.744522 278.780884,190.704147 278.316040,192.910614
z"/>
<path fill="#6D7076" opacity="1.000000" stroke="none"
	d="
M239.040985,90.096931
	C238.679703,89.586754 238.310944,88.656960 237.964371,87.325890
	C238.335526,87.842186 238.684525,88.759750 239.040985,90.096931
z"/>
<path fill="#000000" opacity="1.000000" stroke="none"
	d="
M71.022736,315.967804
	C60.381725,305.410339 49.806953,295.267151 39.593109,284.772644
	C38.328426,283.473206 38.112198,279.832153 39.024151,278.152527
	C39.756821,276.803101 42.904297,276.541626 45.039536,276.278351
	C45.995510,276.160492 47.320450,276.998016 48.095806,277.780579
	C53.451935,283.186432 58.711052,288.688507 63.993385,294.167358
	C66.877403,297.158661 69.700569,300.210022 72.630280,303.155609
	C80.149925,310.716003 87.771530,318.175934 95.226624,325.799011
	C97.629166,328.255676 99.507156,331.236359 96.710228,334.582825
	C94.593460,337.115479 89.982277,336.592499 87.023865,333.467621
	C81.669495,327.811920 76.465775,322.013580 71.022736,315.967804
z"/>
<path fill="#000000" opacity="1.000000" stroke="none"
	d="
M230.694107,244.401398
	C233.407394,241.257385 235.891312,237.943878 239.118500,235.698746
	C242.448578,233.382004 246.877838,235.507706 249.143753,239.813370
	C251.022034,243.382462 249.856903,245.700592 246.139496,247.180099
	C244.860458,247.689148 243.980515,249.131073 242.818634,250.016068
	C236.635651,254.725571 231.789871,252.571304 230.694107,244.401398
z"/>
<path fill="#000000" opacity="1.000000" stroke="none"
	d="
M56.521347,315.640991
	C54.582111,315.800629 52.141430,316.381409 51.494228,315.555969
	C50.449078,314.222961 49.894070,311.727234 50.429855,310.168732
	C50.895012,308.815613 53.053112,307.750122 54.678265,307.229767
	C55.364094,307.010162 57.360153,308.440735 57.439842,309.251099
	C57.638504,311.271332 57.079720,313.366089 56.521347,315.640991
z"/>
<path fill="#000000" opacity="1.000000" stroke="none"
	d="
M222.468689,95.699997
	C211.255814,98.534904 200.563950,102.372765 189.010910,100.242958
	C183.421356,99.212517 177.711029,98.849045 172.101852,97.906944
	C170.050842,97.562469 167.820007,96.807320 166.240540,95.533554
	C164.498276,94.128494 162.144348,91.727463 162.382294,90.100365
	C162.635071,88.372002 165.383759,86.326492 167.444458,85.657372
	C179.260056,81.820801 191.216995,79.709610 203.827637,81.776649
	C210.232330,82.826454 216.700607,83.008293 222.414810,86.524429
	C228.132385,90.042625 228.202972,91.783325 222.468689,95.699997
z"/>
<path fill="#000000" opacity="1.000000" stroke="none"
	d="
M182.615112,143.369919
	C177.876434,142.193497 173.483490,141.398880 169.253067,140.082123
	C161.056396,137.530838 160.679245,136.780441 161.255676,128.042984
	C183.517563,138.218445 205.871216,136.429367 228.365417,128.206741
	C230.329956,133.407181 227.399155,136.485428 223.706604,137.863297
	C217.519531,140.171967 210.818100,141.076767 204.567581,143.247528
	C197.305603,145.769531 190.219513,144.490799 182.615112,143.369919
z"/>
<path fill="#000000" opacity="1.000000" stroke="none"
	d="
M195.838684,179.014648
	C206.972855,177.031799 217.644974,175.049683 228.667984,173.002380
	C229.767914,175.807007 229.149506,178.792053 225.596146,180.113388
	C218.843628,182.624344 212.062073,185.379745 205.042419,186.775467
	C194.061951,188.958710 182.963120,188.626556 172.204254,184.859619
	C170.171768,184.147980 168.101654,183.479126 166.181229,182.524353
	C160.624786,179.761932 160.501663,179.394821 161.386292,173.472137
	C172.720901,175.320618 184.048767,177.168015 195.838684,179.014648
z"/>
<path fill="#000000" opacity="1.000000" stroke="none"
	d="
M172.685577,119.298317
	C170.535263,118.718254 168.714722,118.437508 167.008179,117.834251
	C161.510941,115.890991 160.179443,113.043198 161.809967,106.995987
	C184.032135,116.207588 206.190521,114.878326 228.242783,106.318214
	C229.361069,111.191635 226.399033,116.369911 221.266037,117.648300
	C213.093307,119.683739 204.842896,122.326180 196.542358,122.662163
	C188.773483,122.976631 180.896790,120.627090 172.685577,119.298317
z"/>
<path fill="#000000" opacity="1.000000" stroke="none"
	d="
M212.889160,154.996185
	C218.349365,153.447876 223.387161,151.907730 228.465881,150.355087
	C230.139832,155.142960 227.781738,158.105789 224.123260,159.283646
	C216.328308,161.793289 208.417038,164.433090 200.352646,165.495422
	C189.139359,166.972549 177.972229,165.949142 167.294327,161.218781
	C161.985901,158.867111 159.880173,155.621582 161.309021,150.023422
	C177.783218,157.672852 194.915237,158.509155 212.889160,154.996185
z"/>
<path fill="#000000" opacity="1.000000" stroke="none"
	d="
M147.953888,37.930725
	C147.988342,42.628574 147.988342,46.924805 147.988342,51.746742
	C142.572418,52.263409 137.630966,52.734814 132.689499,53.206219
	C132.468353,52.719868 132.247208,52.233521 132.026062,51.747169
	C136.558701,46.814396 141.066269,41.857704 145.688416,37.010262
	C145.956192,36.729431 147.154282,37.335682 147.953888,37.930725
z"/>
</svg>
